# 3ds Max Wavefront OBJ Exporter v0.97b - (c)2007 guruware
# File Created: 09.11.2014 03:05:49

#
# object Plane001
#

v  -93.6606 9.2248 22.2267
v  -56.4284 3.3278 22.2267
v  -56.4284 3.3278 7.4089
v  -93.6606 9.2248 7.4089
v  -18.8482 0.3701 22.2267
v  -18.8482 0.3701 7.4089
v  18.8482 0.3701 22.2267
v  18.8482 0.3701 7.4089
v  56.4283 3.3278 22.2267
v  56.4283 3.3278 7.4089
v  93.6606 9.2248 22.2267
v  93.6606 9.2248 7.4089
v  -56.4284 3.3278 -7.4089
v  -93.6606 9.2248 -7.4089
v  -18.8482 0.3701 -7.4089
v  18.8482 0.3701 -7.4089
v  56.4283 3.3278 -7.4089
v  93.6606 9.2248 -7.4089
v  -56.4284 3.3278 -22.2267
v  -93.6606 9.2248 -22.2267
v  -18.8482 0.3701 -22.2267
v  18.8482 0.3701 -22.2267
v  56.4283 3.3278 -22.2267
v  93.6606 9.2248 -22.2267
v  130.3154 18.0248 22.2267
v  130.3154 18.0248 7.4089
v  166.1668 29.6736 22.2267
v  166.1668 29.6736 7.4089
v  200.9937 44.0994 22.2267
v  200.9937 44.0994 7.4089
v  234.5814 61.2132 22.2267
v  234.5814 61.2132 7.4089
v  266.7229 80.9095 22.2267
v  266.7229 80.9095 7.4089
v  130.3154 18.0248 -7.4089
v  166.1668 29.6736 -7.4089
v  200.9937 44.0994 -7.4089
v  234.5814 61.2132 -7.4089
v  266.7229 80.9095 -7.4089
v  130.3154 18.0248 -22.2267
v  166.1668 29.6736 -22.2267
v  200.9937 44.0994 -22.2267
v  234.5814 61.2132 -22.2267
v  266.7229 80.9095 -22.2267
v  297.2199 103.0669 22.2267
v  297.2199 103.0669 7.4089
v  325.8845 127.5487 22.2267
v  325.8845 127.5487 7.4089
v  352.5398 154.2041 22.2267
v  352.5398 154.2041 7.4089
v  377.0217 182.8686 22.2267
v  377.0217 182.8686 7.4089
v  399.1790 213.3656 22.2267
v  399.1790 213.3656 7.4089
v  297.2199 103.0669 -7.4089
v  325.8845 127.5487 -7.4089
v  352.5398 154.2041 -7.4089
v  377.0217 182.8686 -7.4089
v  399.1790 213.3656 -7.4089
v  297.2199 103.0669 -22.2267
v  325.8845 127.5487 -22.2267
v  352.5398 154.2041 -22.2267
v  377.0217 182.8686 -22.2267
v  399.1790 213.3656 -22.2267
v  418.8753 245.5070 22.2267
v  418.8753 245.5070 7.4089
v  435.9891 279.0947 22.2267
v  435.9891 279.0947 7.4089
v  450.4149 313.9217 22.2267
v  450.4149 313.9217 7.4089
v  462.0638 349.7731 22.2267
v  462.0638 349.7731 7.4089
v  470.8638 386.4279 22.2267
v  470.8638 386.4279 7.4089
v  418.8753 245.5070 -7.4089
v  435.9891 279.0947 -7.4089
v  450.4149 313.9217 -7.4089
v  462.0638 349.7731 -7.4089
v  470.8638 386.4279 -7.4089
v  418.8753 245.5070 -22.2267
v  435.9891 279.0947 -22.2267
v  450.4149 313.9217 -22.2267
v  462.0638 349.7731 -22.2267
v  470.8638 386.4279 -22.2267
v  476.7609 423.6603 22.2267
v  476.7609 423.6603 7.4089
v  479.7185 461.2404 22.2267
v  479.7185 461.2404 7.4089
v  479.7185 498.9368 22.2267
v  479.7185 498.9368 7.4089
v  476.7609 536.5170 22.2267
v  476.7609 536.5170 7.4089
v  470.8639 573.7492 22.2267
v  470.8639 573.7492 7.4089
v  476.7609 423.6603 -7.4089
v  479.7185 461.2404 -7.4089
v  479.7185 498.9368 -7.4089
v  476.7609 536.5170 -7.4089
v  470.8639 573.7492 -7.4089
v  476.7609 423.6603 -22.2267
v  479.7185 461.2404 -22.2267
v  479.7185 498.9368 -22.2267
v  476.7609 536.5170 -22.2267
v  470.8639 573.7492 -22.2267
v  462.0638 610.4041 22.2267
v  462.0638 610.4041 7.4089
v  450.4150 646.2554 22.2267
v  450.4150 646.2554 7.4089
v  435.9892 681.0823 22.2267
v  435.9892 681.0823 7.4089
v  418.8754 714.6700 22.2267
v  418.8754 714.6700 7.4089
v  399.1791 746.8115 22.2267
v  399.1791 746.8115 7.4089
v  462.0638 610.4041 -7.4089
v  450.4150 646.2554 -7.4089
v  435.9892 681.0823 -7.4089
v  418.8754 714.6700 -7.4089
v  399.1791 746.8115 -7.4089
v  462.0638 610.4041 -22.2267
v  450.4150 646.2554 -22.2267
v  435.9892 681.0823 -22.2267
v  418.8754 714.6700 -22.2267
v  399.1791 746.8115 -22.2267
v  377.0217 777.3085 22.2267
v  377.0217 777.3085 7.4089
v  352.5399 805.9731 22.2267
v  352.5399 805.9731 7.4089
v  325.8846 832.6284 22.2267
v  325.8846 832.6284 7.4089
v  297.2200 857.1103 22.2267
v  297.2200 857.1103 7.4089
v  266.7230 879.2676 22.2267
v  266.7230 879.2676 7.4089
v  377.0217 777.3085 -7.4089
v  352.5399 805.9731 -7.4089
v  325.8846 832.6284 -7.4089
v  297.2200 857.1103 -7.4089
v  266.7230 879.2676 -7.4089
v  377.0217 777.3085 -22.2267
v  352.5399 805.9731 -22.2267
v  325.8846 832.6284 -22.2267
v  297.2200 857.1103 -22.2267
v  266.7230 879.2676 -22.2267
v  234.5816 898.9639 22.2267
v  234.5816 898.9639 7.4089
v  200.9939 916.0777 22.2267
v  200.9939 916.0777 7.4089
v  166.1669 930.5035 22.2267
v  166.1669 930.5035 7.4089
v  130.3155 942.1523 22.2267
v  130.3155 942.1523 7.4089
v  93.6607 950.9525 22.2267
v  93.6607 950.9525 7.4089
v  234.5816 898.9639 -7.4089
v  200.9939 916.0777 -7.4089
v  166.1669 930.5035 -7.4089
v  130.3155 942.1523 -7.4089
v  93.6607 950.9525 -7.4089
v  234.5816 898.9639 -22.2267
v  200.9939 916.0777 -22.2267
v  166.1669 930.5035 -22.2267
v  130.3155 942.1523 -22.2267
v  93.6607 950.9525 -22.2267
v  56.4283 956.8495 22.2267
v  56.4283 956.8495 7.4089
v  18.8481 959.8072 22.2267
v  18.8481 959.8072 7.4089
v  -18.8482 959.8072 22.2267
v  -18.8482 959.8072 7.4089
v  -56.4284 956.8495 22.2267
v  -56.4284 956.8495 7.4089
v  -93.6607 950.9525 22.2267
v  -93.6607 950.9525 7.4089
v  56.4283 956.8495 -7.4089
v  18.8481 959.8072 -7.4089
v  -18.8482 959.8072 -7.4089
v  -56.4284 956.8495 -7.4089
v  -93.6607 950.9525 -7.4089
v  56.4283 956.8495 -22.2267
v  18.8481 959.8072 -22.2267
v  -18.8482 959.8072 -22.2267
v  -56.4284 956.8495 -22.2267
v  -93.6607 950.9525 -22.2267
v  -130.3155 942.1525 22.2267
v  -130.3155 942.1525 7.4089
v  -166.1668 930.5037 22.2267
v  -166.1668 930.5037 7.4089
v  -200.9936 916.0779 22.2267
v  -200.9936 916.0779 7.4089
v  -234.5813 898.9642 22.2267
v  -234.5813 898.9642 7.4089
v  -266.7228 879.2679 22.2267
v  -266.7228 879.2679 7.4089
v  -130.3155 942.1525 -7.4089
v  -166.1668 930.5037 -7.4089
v  -200.9936 916.0779 -7.4089
v  -234.5813 898.9642 -7.4089
v  -266.7228 879.2679 -7.4089
v  -130.3155 942.1525 -22.2267
v  -166.1668 930.5037 -22.2267
v  -200.9936 916.0779 -22.2267
v  -234.5813 898.9642 -22.2267
v  -266.7228 879.2679 -22.2267
v  -297.2200 857.1104 22.2267
v  -297.2200 857.1104 7.4089
v  -325.8846 832.6285 22.2267
v  -325.8846 832.6285 7.4089
v  -352.5399 805.9731 22.2267
v  -352.5399 805.9731 7.4089
v  -377.0217 777.3086 22.2267
v  -377.0217 777.3086 7.4089
v  -399.1791 746.8116 22.2267
v  -399.1791 746.8116 7.4089
v  -297.2200 857.1104 -7.4089
v  -325.8846 832.6285 -7.4089
v  -352.5399 805.9731 -7.4089
v  -377.0217 777.3086 -7.4089
v  -399.1791 746.8116 -7.4089
v  -297.2200 857.1104 -22.2267
v  -325.8846 832.6285 -22.2267
v  -352.5399 805.9731 -22.2267
v  -377.0217 777.3086 -22.2267
v  -399.1791 746.8116 -22.2267
v  -418.8754 714.6702 22.2267
v  -418.8754 714.6702 7.4089
v  -435.9892 681.0825 22.2267
v  -435.9892 681.0825 7.4089
v  -450.4150 646.2554 22.2267
v  -450.4150 646.2554 7.4089
v  -462.0638 610.4041 22.2267
v  -462.0638 610.4041 7.4089
v  -470.8639 573.7493 22.2267
v  -470.8639 573.7493 7.4089
v  -418.8754 714.6702 -7.4089
v  -435.9892 681.0825 -7.4089
v  -450.4150 646.2554 -7.4089
v  -462.0638 610.4041 -7.4089
v  -470.8639 573.7493 -7.4089
v  -418.8754 714.6702 -22.2267
v  -435.9892 681.0825 -22.2267
v  -450.4150 646.2554 -22.2267
v  -462.0638 610.4041 -22.2267
v  -470.8639 573.7493 -22.2267
v  -476.7609 536.5168 22.2267
v  -476.7609 536.5168 7.4089
v  -479.7185 498.9367 22.2267
v  -479.7185 498.9367 7.4089
v  -479.7185 461.2404 22.2267
v  -479.7185 461.2404 7.4089
v  -476.7609 423.6602 22.2267
v  -476.7609 423.6602 7.4089
v  -470.8638 386.4279 22.2267
v  -470.8638 386.4279 7.4089
v  -476.7609 536.5168 -7.4089
v  -479.7185 498.9367 -7.4089
v  -479.7185 461.2404 -7.4089
v  -476.7609 423.6602 -7.4089
v  -470.8638 386.4279 -7.4089
v  -476.7609 536.5168 -22.2267
v  -479.7185 498.9367 -22.2267
v  -479.7185 461.2404 -22.2267
v  -476.7609 423.6602 -22.2267
v  -470.8638 386.4279 -22.2267
v  -462.0638 349.7731 22.2267
v  -462.0638 349.7731 7.4089
v  -450.4150 313.9218 22.2267
v  -450.4150 313.9218 7.4089
v  -435.9892 279.0948 22.2267
v  -435.9892 279.0948 7.4089
v  -418.8754 245.5071 22.2267
v  -418.8754 245.5071 7.4089
v  -399.1791 213.3656 22.2267
v  -399.1791 213.3656 7.4089
v  -462.0638 349.7731 -7.4089
v  -450.4150 313.9218 -7.4089
v  -435.9892 279.0948 -7.4089
v  -418.8754 245.5071 -7.4089
v  -399.1791 213.3656 -7.4089
v  -462.0638 349.7731 -22.2267
v  -450.4150 313.9218 -22.2267
v  -435.9892 279.0948 -22.2267
v  -418.8754 245.5071 -22.2267
v  -399.1791 213.3656 -22.2267
v  -377.0217 182.8686 22.2267
v  -377.0217 182.8686 7.4089
v  -352.5399 154.2041 22.2267
v  -352.5399 154.2041 7.4089
v  -325.8845 127.5487 22.2267
v  -325.8845 127.5487 7.4089
v  -297.2199 103.0669 22.2267
v  -297.2199 103.0669 7.4089
v  -266.7230 80.9095 22.2267
v  -266.7230 80.9095 7.4089
v  -377.0217 182.8686 -7.4089
v  -352.5399 154.2041 -7.4089
v  -325.8845 127.5487 -7.4089
v  -297.2199 103.0669 -7.4089
v  -266.7230 80.9095 -7.4089
v  -377.0217 182.8686 -22.2267
v  -352.5399 154.2041 -22.2267
v  -325.8845 127.5487 -22.2267
v  -297.2199 103.0669 -22.2267
v  -266.7230 80.9095 -22.2267
v  -234.5815 61.2132 22.2267
v  -234.5815 61.2132 7.4089
v  -200.9938 44.0994 22.2267
v  -200.9938 44.0994 7.4089
v  -166.1668 29.6736 22.2267
v  -166.1668 29.6736 7.4089
v  -130.3154 18.0248 22.2267
v  -130.3154 18.0248 7.4089
v  -234.5815 61.2132 -7.4089
v  -200.9938 44.0994 -7.4089
v  -166.1668 29.6736 -7.4089
v  -130.3154 18.0248 -7.4089
v  -234.5815 61.2132 -22.2267
v  -200.9938 44.0994 -22.2267
v  -166.1668 29.6736 -22.2267
v  -130.3154 18.0248 -22.2267
# 320 vertices

vn 0.1951 0.9808 -0.0000
vn 0.1175 0.9931 -0.0000
vn 0.0393 0.9992 -0.0000
vn -0.0393 0.9992 -0.0000
vn -0.1175 0.9931 -0.0000
vn -0.1951 0.9808 -0.0000
vn -0.2714 0.9625 -0.0000
vn -0.3461 0.9382 -0.0000
vn -0.4187 0.9081 -0.0000
vn -0.4886 0.8725 -0.0000
vn -0.5556 0.8315 -0.0000
vn -0.6191 0.7853 -0.0000
vn -0.6788 0.7343 -0.0000
vn -0.7343 0.6788 -0.0000
vn -0.7853 0.6191 -0.0000
vn -0.8315 0.5556 -0.0000
vn -0.8725 0.4886 -0.0000
vn -0.9081 0.4187 -0.0000
vn -0.9382 0.3461 -0.0000
vn -0.9625 0.2714 -0.0000
vn -0.9808 0.1951 -0.0000
vn -0.9931 0.1175 -0.0000
vn -0.9992 0.0393 -0.0000
vn -0.9992 -0.0393 -0.0000
vn -0.9931 -0.1175 -0.0000
vn -0.9808 -0.1951 -0.0000
vn -0.9625 -0.2714 -0.0000
vn -0.9382 -0.3461 -0.0000
vn -0.9081 -0.4187 -0.0000
vn -0.8725 -0.4886 -0.0000
vn -0.8315 -0.5556 -0.0000
vn -0.7853 -0.6191 -0.0000
vn -0.7343 -0.6788 -0.0000
vn -0.6788 -0.7343 -0.0000
vn -0.6191 -0.7853 -0.0000
vn -0.5556 -0.8315 -0.0000
vn -0.4886 -0.8725 -0.0000
vn -0.4187 -0.9081 -0.0000
vn -0.3461 -0.9382 -0.0000
vn -0.2714 -0.9625 -0.0000
vn -0.1951 -0.9808 -0.0000
vn -0.1175 -0.9931 -0.0000
vn -0.0393 -0.9992 -0.0000
vn 0.0393 -0.9992 -0.0000
vn 0.1175 -0.9931 -0.0000
vn 0.1951 -0.9808 -0.0000
vn 0.2714 -0.9625 -0.0000
vn 0.3461 -0.9382 -0.0000
vn 0.4187 -0.9081 -0.0000
vn 0.4886 -0.8725 -0.0000
vn 0.5556 -0.8315 -0.0000
vn 0.6191 -0.7853 -0.0000
vn 0.6788 -0.7343 -0.0000
vn 0.7343 -0.6788 -0.0000
vn 0.7853 -0.6191 -0.0000
vn 0.8315 -0.5556 -0.0000
vn 0.8725 -0.4886 -0.0000
vn 0.9081 -0.4187 -0.0000
vn 0.9382 -0.3461 -0.0000
vn 0.9625 -0.2714 -0.0000
vn 0.9808 -0.1951 -0.0000
vn 0.9931 -0.1175 -0.0000
vn 0.9992 -0.0393 -0.0000
vn 0.9992 0.0393 -0.0000
vn 0.9931 0.1175 -0.0000
vn 0.9808 0.1951 -0.0000
vn 0.9625 0.2714 -0.0000
vn 0.9382 0.3461 -0.0000
vn 0.9081 0.4187 -0.0000
vn 0.8725 0.4886 -0.0000
vn 0.8315 0.5556 -0.0000
vn 0.7853 0.6191 -0.0000
vn 0.7343 0.6788 -0.0000
vn 0.6788 0.7343 -0.0000
vn 0.6191 0.7853 -0.0000
vn 0.5556 0.8315 -0.0000
vn 0.4886 0.8725 -0.0000
vn 0.4187 0.9081 -0.0000
vn 0.3461 0.9382 -0.0000
vn 0.2714 0.9625 -0.0000
# 80 vertex normals

vt -0.0000 0.0102 0.0000
vt 0.2000 0.0102 0.0000
vt 0.2000 0.0887 0.0000
vt -0.0000 0.0887 0.0000
vt 0.4000 0.0102 0.0000
vt 0.4000 0.0887 0.0000
vt 0.6000 0.0102 0.0000
vt 0.6000 0.0887 0.0000
vt 0.8000 0.0102 0.0000
vt 0.8000 0.0887 0.0000
vt 1.0000 0.0102 0.0000
vt 1.0000 0.0887 0.0000
vt 0.2000 0.1673 0.0000
vt -0.0000 0.1673 0.0000
vt 0.4000 0.1673 0.0000
vt 0.6000 0.1673 0.0000
vt 0.8000 0.1673 0.0000
vt 1.0000 0.1673 0.0000
vt 0.2000 0.2459 0.0000
vt -0.0000 0.2459 0.0000
vt 0.4000 0.2459 0.0000
vt 0.6000 0.2459 0.0000
vt 0.8000 0.2459 0.0000
vt 1.0000 0.2459 0.0000
# 24 texture coords

g Plane001
s 1
f 1/1/1 2/2/2 3/3/2 4/4/1 
f 2/2/2 5/5/3 6/6/3 3/3/2 
f 5/5/3 7/7/4 8/8/4 6/6/3 
f 7/7/4 9/9/5 10/10/5 8/8/4 
f 9/9/5 11/11/6 12/12/6 10/10/5 
f 4/4/1 3/3/2 13/13/2 14/14/1 
f 3/3/2 6/6/3 15/15/3 13/13/2 
f 6/6/3 8/8/4 16/16/4 15/15/3 
f 8/8/4 10/10/5 17/17/5 16/16/4 
f 10/10/5 12/12/6 18/18/6 17/17/5 
f 14/14/1 13/13/2 19/19/2 20/20/1 
f 13/13/2 15/15/3 21/21/3 19/19/2 
f 15/15/3 16/16/4 22/22/4 21/21/3 
f 16/16/4 17/17/5 23/23/5 22/22/4 
f 17/17/5 18/18/6 24/24/6 23/23/5 
f 11/1/6 25/2/7 26/3/7 12/4/6 
f 25/2/7 27/5/8 28/6/8 26/3/7 
f 27/5/8 29/7/9 30/8/9 28/6/8 
f 29/7/9 31/9/10 32/10/10 30/8/9 
f 31/9/10 33/11/11 34/12/11 32/10/10 
f 12/4/6 26/3/7 35/13/7 18/14/6 
f 26/3/7 28/6/8 36/15/8 35/13/7 
f 28/6/8 30/8/9 37/16/9 36/15/8 
f 30/8/9 32/10/10 38/17/10 37/16/9 
f 32/10/10 34/12/11 39/18/11 38/17/10 
f 18/14/6 35/13/7 40/19/7 24/20/6 
f 35/13/7 36/15/8 41/21/8 40/19/7 
f 36/15/8 37/16/9 42/22/9 41/21/8 
f 37/16/9 38/17/10 43/23/10 42/22/9 
f 38/17/10 39/18/11 44/24/11 43/23/10 
f 33/1/11 45/2/12 46/3/12 34/4/11 
f 45/2/12 47/5/13 48/6/13 46/3/12 
f 47/5/13 49/7/14 50/8/14 48/6/13 
f 49/7/14 51/9/15 52/10/15 50/8/14 
f 51/9/15 53/11/16 54/12/16 52/10/15 
f 34/4/11 46/3/12 55/13/12 39/14/11 
f 46/3/12 48/6/13 56/15/13 55/13/12 
f 48/6/13 50/8/14 57/16/14 56/15/13 
f 50/8/14 52/10/15 58/17/15 57/16/14 
f 52/10/15 54/12/16 59/18/16 58/17/15 
f 39/14/11 55/13/12 60/19/12 44/20/11 
f 55/13/12 56/15/13 61/21/13 60/19/12 
f 56/15/13 57/16/14 62/22/14 61/21/13 
f 57/16/14 58/17/15 63/23/15 62/22/14 
f 58/17/15 59/18/16 64/24/16 63/23/15 
f 53/1/16 65/2/17 66/3/17 54/4/16 
f 65/2/17 67/5/18 68/6/18 66/3/17 
f 67/5/18 69/7/19 70/8/19 68/6/18 
f 69/7/19 71/9/20 72/10/20 70/8/19 
f 71/9/20 73/11/21 74/12/21 72/10/20 
f 54/4/16 66/3/17 75/13/17 59/14/16 
f 66/3/17 68/6/18 76/15/18 75/13/17 
f 68/6/18 70/8/19 77/16/19 76/15/18 
f 70/8/19 72/10/20 78/17/20 77/16/19 
f 72/10/20 74/12/21 79/18/21 78/17/20 
f 59/14/16 75/13/17 80/19/17 64/20/16 
f 75/13/17 76/15/18 81/21/18 80/19/17 
f 76/15/18 77/16/19 82/22/19 81/21/18 
f 77/16/19 78/17/20 83/23/20 82/22/19 
f 78/17/20 79/18/21 84/24/21 83/23/20 
f 73/1/21 85/2/22 86/3/22 74/4/21 
f 85/2/22 87/5/23 88/6/23 86/3/22 
f 87/5/23 89/7/24 90/8/24 88/6/23 
f 89/7/24 91/9/25 92/10/25 90/8/24 
f 91/9/25 93/11/26 94/12/26 92/10/25 
f 74/4/21 86/3/22 95/13/22 79/14/21 
f 86/3/22 88/6/23 96/15/23 95/13/22 
f 88/6/23 90/8/24 97/16/24 96/15/23 
f 90/8/24 92/10/25 98/17/25 97/16/24 
f 92/10/25 94/12/26 99/18/26 98/17/25 
f 79/14/21 95/13/22 100/19/22 84/20/21 
f 95/13/22 96/15/23 101/21/23 100/19/22 
f 96/15/23 97/16/24 102/22/24 101/21/23 
f 97/16/24 98/17/25 103/23/25 102/22/24 
f 98/17/25 99/18/26 104/24/26 103/23/25 
f 93/1/26 105/2/27 106/3/27 94/4/26 
f 105/2/27 107/5/28 108/6/28 106/3/27 
f 107/5/28 109/7/29 110/8/29 108/6/28 
f 109/7/29 111/9/30 112/10/30 110/8/29 
f 111/9/30 113/11/31 114/12/31 112/10/30 
f 94/4/26 106/3/27 115/13/27 99/14/26 
f 106/3/27 108/6/28 116/15/28 115/13/27 
f 108/6/28 110/8/29 117/16/29 116/15/28 
f 110/8/29 112/10/30 118/17/30 117/16/29 
f 112/10/30 114/12/31 119/18/31 118/17/30 
f 99/14/26 115/13/27 120/19/27 104/20/26 
f 115/13/27 116/15/28 121/21/28 120/19/27 
f 116/15/28 117/16/29 122/22/29 121/21/28 
f 117/16/29 118/17/30 123/23/30 122/22/29 
f 118/17/30 119/18/31 124/24/31 123/23/30 
f 113/1/31 125/2/32 126/3/32 114/4/31 
f 125/2/32 127/5/33 128/6/33 126/3/32 
f 127/5/33 129/7/34 130/8/34 128/6/33 
f 129/7/34 131/9/35 132/10/35 130/8/34 
f 131/9/35 133/11/36 134/12/36 132/10/35 
f 114/4/31 126/3/32 135/13/32 119/14/31 
f 126/3/32 128/6/33 136/15/33 135/13/32 
f 128/6/33 130/8/34 137/16/34 136/15/33 
f 130/8/34 132/10/35 138/17/35 137/16/34 
f 132/10/35 134/12/36 139/18/36 138/17/35 
f 119/14/31 135/13/32 140/19/32 124/20/31 
f 135/13/32 136/15/33 141/21/33 140/19/32 
f 136/15/33 137/16/34 142/22/34 141/21/33 
f 137/16/34 138/17/35 143/23/35 142/22/34 
f 138/17/35 139/18/36 144/24/36 143/23/35 
f 133/1/36 145/2/37 146/3/37 134/4/36 
f 145/2/37 147/5/38 148/6/38 146/3/37 
f 147/5/38 149/7/39 150/8/39 148/6/38 
f 149/7/39 151/9/40 152/10/40 150/8/39 
f 151/9/40 153/11/41 154/12/41 152/10/40 
f 134/4/36 146/3/37 155/13/37 139/14/36 
f 146/3/37 148/6/38 156/15/38 155/13/37 
f 148/6/38 150/8/39 157/16/39 156/15/38 
f 150/8/39 152/10/40 158/17/40 157/16/39 
f 152/10/40 154/12/41 159/18/41 158/17/40 
f 139/14/36 155/13/37 160/19/37 144/20/36 
f 155/13/37 156/15/38 161/21/38 160/19/37 
f 156/15/38 157/16/39 162/22/39 161/21/38 
f 157/16/39 158/17/40 163/23/40 162/22/39 
f 158/17/40 159/18/41 164/24/41 163/23/40 
f 153/1/41 165/2/42 166/3/42 154/4/41 
f 165/2/42 167/5/43 168/6/43 166/3/42 
f 167/5/43 169/7/44 170/8/44 168/6/43 
f 169/7/44 171/9/45 172/10/45 170/8/44 
f 171/9/45 173/11/46 174/12/46 172/10/45 
f 154/4/41 166/3/42 175/13/42 159/14/41 
f 166/3/42 168/6/43 176/15/43 175/13/42 
f 168/6/43 170/8/44 177/16/44 176/15/43 
f 170/8/44 172/10/45 178/17/45 177/16/44 
f 172/10/45 174/12/46 179/18/46 178/17/45 
f 159/14/41 175/13/42 180/19/42 164/20/41 
f 175/13/42 176/15/43 181/21/43 180/19/42 
f 176/15/43 177/16/44 182/22/44 181/21/43 
f 177/16/44 178/17/45 183/23/45 182/22/44 
f 178/17/45 179/18/46 184/24/46 183/23/45 
f 173/1/46 185/2/47 186/3/47 174/4/46 
f 185/2/47 187/5/48 188/6/48 186/3/47 
f 187/5/48 189/7/49 190/8/49 188/6/48 
f 189/7/49 191/9/50 192/10/50 190/8/49 
f 191/9/50 193/11/51 194/12/51 192/10/50 
f 174/4/46 186/3/47 195/13/47 179/14/46 
f 186/3/47 188/6/48 196/15/48 195/13/47 
f 188/6/48 190/8/49 197/16/49 196/15/48 
f 190/8/49 192/10/50 198/17/50 197/16/49 
f 192/10/50 194/12/51 199/18/51 198/17/50 
f 179/14/46 195/13/47 200/19/47 184/20/46 
f 195/13/47 196/15/48 201/21/48 200/19/47 
f 196/15/48 197/16/49 202/22/49 201/21/48 
f 197/16/49 198/17/50 203/23/50 202/22/49 
f 198/17/50 199/18/51 204/24/51 203/23/50 
f 193/1/51 205/2/52 206/3/52 194/4/51 
f 205/2/52 207/5/53 208/6/53 206/3/52 
f 207/5/53 209/7/54 210/8/54 208/6/53 
f 209/7/54 211/9/55 212/10/55 210/8/54 
f 211/9/55 213/11/56 214/12/56 212/10/55 
f 194/4/51 206/3/52 215/13/52 199/14/51 
f 206/3/52 208/6/53 216/15/53 215/13/52 
f 208/6/53 210/8/54 217/16/54 216/15/53 
f 210/8/54 212/10/55 218/17/55 217/16/54 
f 212/10/55 214/12/56 219/18/56 218/17/55 
f 199/14/51 215/13/52 220/19/52 204/20/51 
f 215/13/52 216/15/53 221/21/53 220/19/52 
f 216/15/53 217/16/54 222/22/54 221/21/53 
f 217/16/54 218/17/55 223/23/55 222/22/54 
f 218/17/55 219/18/56 224/24/56 223/23/55 
f 213/1/56 225/2/57 226/3/57 214/4/56 
f 225/2/57 227/5/58 228/6/58 226/3/57 
f 227/5/58 229/7/59 230/8/59 228/6/58 
f 229/7/59 231/9/60 232/10/60 230/8/59 
f 231/9/60 233/11/61 234/12/61 232/10/60 
f 214/4/56 226/3/57 235/13/57 219/14/56 
f 226/3/57 228/6/58 236/15/58 235/13/57 
f 228/6/58 230/8/59 237/16/59 236/15/58 
f 230/8/59 232/10/60 238/17/60 237/16/59 
f 232/10/60 234/12/61 239/18/61 238/17/60 
f 219/14/56 235/13/57 240/19/57 224/20/56 
f 235/13/57 236/15/58 241/21/58 240/19/57 
f 236/15/58 237/16/59 242/22/59 241/21/58 
f 237/16/59 238/17/60 243/23/60 242/22/59 
f 238/17/60 239/18/61 244/24/61 243/23/60 
f 233/1/61 245/2/62 246/3/62 234/4/61 
f 245/2/62 247/5/63 248/6/63 246/3/62 
f 247/5/63 249/7/64 250/8/64 248/6/63 
f 249/7/64 251/9/65 252/10/65 250/8/64 
f 251/9/65 253/11/66 254/12/66 252/10/65 
f 234/4/61 246/3/62 255/13/62 239/14/61 
f 246/3/62 248/6/63 256/15/63 255/13/62 
f 248/6/63 250/8/64 257/16/64 256/15/63 
f 250/8/64 252/10/65 258/17/65 257/16/64 
f 252/10/65 254/12/66 259/18/66 258/17/65 
f 239/14/61 255/13/62 260/19/62 244/20/61 
f 255/13/62 256/15/63 261/21/63 260/19/62 
f 256/15/63 257/16/64 262/22/64 261/21/63 
f 257/16/64 258/17/65 263/23/65 262/22/64 
f 258/17/65 259/18/66 264/24/66 263/23/65 
f 253/1/66 265/2/67 266/3/67 254/4/66 
f 265/2/67 267/5/68 268/6/68 266/3/67 
f 267/5/68 269/7/69 270/8/69 268/6/68 
f 269/7/69 271/9/70 272/10/70 270/8/69 
f 271/9/70 273/11/71 274/12/71 272/10/70 
f 254/4/66 266/3/67 275/13/67 259/14/66 
f 266/3/67 268/6/68 276/15/68 275/13/67 
f 268/6/68 270/8/69 277/16/69 276/15/68 
f 270/8/69 272/10/70 278/17/70 277/16/69 
f 272/10/70 274/12/71 279/18/71 278/17/70 
f 259/14/66 275/13/67 280/19/67 264/20/66 
f 275/13/67 276/15/68 281/21/68 280/19/67 
f 276/15/68 277/16/69 282/22/69 281/21/68 
f 277/16/69 278/17/70 283/23/70 282/22/69 
f 278/17/70 279/18/71 284/24/71 283/23/70 
f 273/1/71 285/2/72 286/3/72 274/4/71 
f 285/2/72 287/5/73 288/6/73 286/3/72 
f 287/5/73 289/7/74 290/8/74 288/6/73 
f 289/7/74 291/9/75 292/10/75 290/8/74 
f 291/9/75 293/11/76 294/12/76 292/10/75 
f 274/4/71 286/3/72 295/13/72 279/14/71 
f 286/3/72 288/6/73 296/15/73 295/13/72 
f 288/6/73 290/8/74 297/16/74 296/15/73 
f 290/8/74 292/10/75 298/17/75 297/16/74 
f 292/10/75 294/12/76 299/18/76 298/17/75 
f 279/14/71 295/13/72 300/19/72 284/20/71 
f 295/13/72 296/15/73 301/21/73 300/19/72 
f 296/15/73 297/16/74 302/22/74 301/21/73 
f 297/16/74 298/17/75 303/23/75 302/22/74 
f 298/17/75 299/18/76 304/24/76 303/23/75 
f 293/1/76 305/2/77 306/3/77 294/4/76 
f 305/2/77 307/5/78 308/6/78 306/3/77 
f 307/5/78 309/7/79 310/8/79 308/6/78 
f 309/7/79 311/9/80 312/10/80 310/8/79 
f 311/9/80 1/11/1 4/12/1 312/10/80 
f 294/4/76 306/3/77 313/13/77 299/14/76 
f 306/3/77 308/6/78 314/15/78 313/13/77 
f 308/6/78 310/8/79 315/16/79 314/15/78 
f 310/8/79 312/10/80 316/17/80 315/16/79 
f 312/10/80 4/12/1 14/18/1 316/17/80 
f 299/14/76 313/13/77 317/19/77 304/20/76 
f 313/13/77 314/15/78 318/21/78 317/19/77 
f 314/15/78 315/16/79 319/22/79 318/21/78 
f 315/16/79 316/17/80 320/23/80 319/22/79 
f 316/17/80 14/18/1 20/24/1 320/23/80 
# 240 polygons

